<svg id="logo-sky-distribuidor" xmlns="http://www.w3.org/2000/svg" width="151.395" height="64" viewBox="0 0 151.395 64">
  <path id="Trazado_1" data-name="Trazado 1" d="M261.115,322.859a9.844,9.844,0,0,0,3.947.848c3.116.064,4.8-1.124,6.056-3.91l16.666-37.162a9.074,9.074,0,0,0-3.451-.8c-2.15-.046-5.028.388-6.856,4.778l-5.4,12.727-10.6-17.229a15.247,15.247,0,0,0-3.567-.5c-3.739,0-5.817,1.369-8,3.723l-10.286,11.245L247.9,309.6a7.323,7.323,0,0,0,6.812,3.588,12.173,12.173,0,0,0,4.755-.889L249.5,297.278l7.064-7.494,11.617,18.195m-28.925.831c0,2.74-1.074,4.321-6.424,4.321a12.139,12.139,0,0,1-1.92-.141V276.645c0-2.763.937-5.645,6.33-5.645a9.763,9.763,0,0,1,2.013.208Zm-11.032-5.484c0,5.117-3.341,8.846-10.126,9.575-4.915.526-12.02-.094-15.4-.478a9.334,9.334,0,0,1-.208-1.785c0-4.458,2.4-5.485,4.662-5.485,2.356,0,6.058.416,8.8.416,3.037,0,3.947-1.039,3.947-2.009,0-1.284-1.209-1.807-3.563-2.264l-6.44-1.234c-5.348-1.028-8.2-4.73-8.2-8.665,0-4.778,3.38-8.773,10.03-9.507a69.687,69.687,0,0,1,14.513.48,8.443,8.443,0,0,1,.183,1.716c0,4.458-2.356,5.416-4.614,5.416-1.739,0-4.431-.318-7.523-.318-3.135,0-4.435.868-4.435,1.916,0,1.122,1.234,1.577,3.206,1.924l6.145,1.141c6.305,1.168,9.029,4.753,9.029,9.166" transform="translate(-172.322 -271)" fill="#0075c9"/>
  <path id="Trazado_2" data-name="Trazado 2" d="M631.033,324.364a2.267,2.267,0,1,1-2.26-2.264,2.267,2.267,0,0,1,2.26,2.264m-4.055,0a1.8,1.8,0,1,0,.517-1.281,1.791,1.791,0,0,0-.517,1.281m1.913-1.276c.16,0,.914,0,.914.706a.594.594,0,0,1-.48.623v.013c.355.1.416.314.432.646.025.438.025.492.083.6H629.4c-.048-.077-.064-.154-.077-.48-.019-.415-.1-.522-.546-.557h-.528v1.039H627.8v-2.6Zm-.646,1.138h.534c.185,0,.582,0,.582-.415-.029-.272-.3-.3-.521-.3h-.594Z" transform="translate(-508.878 -311.484)" fill="#0075c9"/>
  <path id="Trazado_3" data-name="Trazado 3" d="M60.33,543.66h2.385A3.517,3.517,0,0,1,65.9,545a3.682,3.682,0,0,1,.661,2.24c0,1.967-.972,3.621-3.708,3.621H60.33m1.841-1.616h.792c1.373,0,1.762-.954,1.762-1.976a2.547,2.547,0,0,0-.349-1.334,1.505,1.505,0,0,0-1.4-.663h-.8Z" transform="translate(-60.33 -487.015)" fill="#0075c9"/>
  <rect id="Rectángulo_30" data-name="Rectángulo 30" width="1.841" height="7.205" transform="translate(8.1 56.645)" fill="#0075c9"/>
  <path id="Trazado_4" data-name="Trazado 4" d="M119.473,545.238c-.039-.245-.1-.7-.661-.7a.6.6,0,0,0-.634.565c0,.428.2.515,1.49,1.1,1.344.6,1.685,1.226,1.685,2.063,0,1.051-.6,2.21-2.512,2.21-2.077,0-2.6-1.363-2.6-2.285v-.235h1.83c0,.831.517.984.75.984a.7.7,0,0,0,.7-.692c0-.478-.3-.594-1.413-1.062-.507-.208-1.762-.71-1.762-2.065A2.339,2.339,0,0,1,118.87,543a2.566,2.566,0,0,1,1.947.816,2.192,2.192,0,0,1,.478,1.423" transform="translate(-104.625 -486.488)" fill="#0075c9"/>
  <path id="Trazado_5" data-name="Trazado 5" d="M147.571,545.276H146.15V543.66h4.672v1.616h-1.411v5.589h-1.841" transform="translate(-128.321 -487.015)" fill="#0075c9"/>
  <path id="Trazado_6" data-name="Trazado 6" d="M176,543.66h2.285a3.189,3.189,0,0,1,2.221.517,2.493,2.493,0,0,1,.885,1.966,2.183,2.183,0,0,1-1.791,2.269l1.957,2.453h-2.119l-1.662-2.327h-.019v2.327H176m1.762-3.582h.652c1.08,0,1.207-.681,1.207-1.039,0-.652-.478-.974-1.188-.974h-.671Z" transform="translate(-151.97 -487.015)" fill="#0075c9"/>
  <rect id="Rectángulo_31" data-name="Rectángulo 31" width="1.841" height="7.205" transform="translate(31.159 56.645)" fill="#0075c9"/>
  <path id="Trazado_7" data-name="Trazado 7" d="M229.2,543.66h2.219c1.217,0,1.783.118,2.308.7a1.663,1.663,0,0,1,.428,1.188,1.625,1.625,0,0,1-.831,1.454,1.662,1.662,0,0,1,1.188,1.674,2.077,2.077,0,0,1-.661,1.566,3,3,0,0,1-2.358.623h-2.285m1.762-4.469h.652c.253,0,.779,0,.779-.574s-.5-.546-.779-.546h-.652Zm0,2.852h.866c.235,0,.916,0,.916-.69,0-.623-.623-.623-.916-.623h-.866Z" transform="translate(-194.117 -487.015)" fill="#0075c9"/>
  <path id="Trazado_8" data-name="Trazado 8" d="M264.965,543.66v4.363c0,.488.029,1.373.935,1.373s.914-.8.914-1.373V543.66h1.841v4.363a2.751,2.751,0,0,1-.721,2.211,2.7,2.7,0,0,1-2.015.779,2.918,2.918,0,0,1-2.078-.769,2.721,2.721,0,0,1-.721-2.221V543.66" transform="translate(-220.99 -487.015)" fill="#0075c9"/>
  <rect id="Rectángulo_32" data-name="Rectángulo 32" width="1.841" height="7.205" transform="translate(49.738 56.645)" fill="#0075c9"/>
  <path id="Trazado_9" data-name="Trazado 9" d="M318.16,543.66h2.385A3.517,3.517,0,0,1,323.73,545a3.681,3.681,0,0,1,.661,2.24c0,1.967-.972,3.621-3.708,3.621H318.16M320,549.248h.787c1.373,0,1.764-.954,1.764-1.976a2.549,2.549,0,0,0-.351-1.334,1.505,1.505,0,0,0-1.4-.663H320Z" transform="translate(-264.596 -487.015)" fill="#0075c9"/>
  <path id="Trazado_10" data-name="Trazado 10" d="M359.446,543a3.74,3.74,0,1,1-3.8,3.825,4.076,4.076,0,0,1,.28-1.539A3.74,3.74,0,0,1,359.444,543m.029,5.861a2.128,2.128,0,1,0-1.986-2.142,2.022,2.022,0,0,0,1.986,2.142" transform="translate(-294.296 -486.489)" fill="#0075c9"/>
  <path id="Trazado_11" data-name="Trazado 11" d="M400.79,543.66h2.285a3.186,3.186,0,0,1,2.219.517,2.493,2.493,0,0,1,.887,1.966,2.183,2.183,0,0,1-1.791,2.269l1.957,2.453h-2.111l-1.662-2.327h-.021v2.327h-1.762m1.762-3.582h.654c1.08,0,1.207-.681,1.207-1.039,0-.652-.478-.974-1.188-.974h-.673Z" transform="translate(-330.059 -487.015)" fill="#0075c9"/>
  <path id="Trazado_12" data-name="Trazado 12" d="M452.078,549.816l-.38,1.039H449.72l2.892-7.2h1.454l2.861,7.2h-1.994l-.351-1.039m-2-1.454h1.508l-.74-2.464h-.029Z" transform="translate(-368.824 -487.007)" fill="#0075c9"/>
  <path id="Trazado_13" data-name="Trazado 13" d="M491.575,543.66v4.363c0,.488.029,1.373.935,1.373s.914-.8.914-1.373V543.66h1.841v4.363a2.751,2.751,0,0,1-.721,2.211,2.7,2.7,0,0,1-2.015.779,2.918,2.918,0,0,1-2.077-.769,2.721,2.721,0,0,1-.721-2.221V543.66" transform="translate(-400.522 -487.015)" fill="#0075c9"/>
  <path id="Trazado_14" data-name="Trazado 14" d="M525.061,545.276H523.64V543.66h4.672v1.616H526.9v5.589h-1.841" transform="translate(-427.387 -487.015)" fill="#0075c9"/>
  <path id="Trazado_15" data-name="Trazado 15" d="M555.037,543a3.74,3.74,0,1,1-3.8,3.825,4.073,4.073,0,0,1,.283-1.537A3.739,3.739,0,0,1,555.037,543m.029,5.861a2.128,2.128,0,1,0-1.986-2.142,2.021,2.021,0,0,0,1.986,2.142" transform="translate(-449.252 -486.492)" fill="#0075c9"/>
  <path id="Trazado_16" data-name="Trazado 16" d="M596.38,543.66h2.285a3.186,3.186,0,0,1,2.219.517,2.494,2.494,0,0,1,.887,1.966,2.183,2.183,0,0,1-1.793,2.269l1.959,2.453h-2.1l-1.662-2.327h-.021v2.327h-1.762m1.762-3.582h.644c1.081,0,1.207-.681,1.207-1.039,0-.652-.477-.974-1.188-.974h-.673Z" transform="translate(-485.015 -487.015)" fill="#0075c9"/>
  <rect id="Rectángulo_33" data-name="Rectángulo 33" width="1.841" height="7.205" transform="translate(118.503 56.645)" fill="#0075c9"/>
  <path id="Trazado_17" data-name="Trazado 17" d="M647.24,549.658l2.483-4.381H647.24V543.66h4.546v1.49l-2.3,4.1h2.3v1.616H647.24" transform="translate(-525.309 -487.015)" fill="#0075c9"/>
  <path id="Trazado_18" data-name="Trazado 18" d="M676.366,549.824l-.38,1.039H674l2.908-7.2h1.454l2.863,7.2h-2l-.351-1.039m-2-1.454h1.51l-.74-2.464h-.029Z" transform="translate(-546.51 -487.015)" fill="#0075c9"/>
  <path id="Trazado_19" data-name="Trazado 19" d="M715.57,543.66h2.385A3.517,3.517,0,0,1,721.14,545a3.687,3.687,0,0,1,.663,2.24c0,1.967-.974,3.621-3.71,3.621H715.57m1.841-1.616h.787c1.373,0,1.764-.954,1.764-1.976a2.533,2.533,0,0,0-.351-1.334,1.505,1.505,0,0,0-1.4-.663h-.8Z" transform="translate(-579.443 -487.015)" fill="#0075c9"/>
  <path id="Trazado_20" data-name="Trazado 20" d="M756.867,543a3.74,3.74,0,1,1-3.8,3.825,4.079,4.079,0,0,1,.283-1.537A3.739,3.739,0,0,1,756.867,543m.029,5.861a2.128,2.128,0,1,0-1.986-2.142,2.02,2.02,0,0,0,1.986,2.142" transform="translate(-609.152 -486.492)" fill="#0075c9"/>
</svg>
